<svg width="294" height="50" viewBox="0 0 294 50" fill="none" xmlns="http://www.w3.org/2000/svg">
<rect x="1.5" y="1.5" width="291" height="47" stroke="white" stroke-width="3"/>
<path d="M41.3467 31H38.5605L38.5781 28.9434H41.3467C42.0381 28.9434 42.6211 28.7881 43.0957 28.4775C43.5703 28.1611 43.9277 27.7012 44.168 27.0977C44.4141 26.4941 44.5371 25.7646 44.5371 24.9092V24.2852C44.5371 23.6289 44.4668 23.0518 44.3262 22.5537C44.1914 22.0557 43.9893 21.6367 43.7197 21.2969C43.4502 20.957 43.1191 20.7021 42.7266 20.5322C42.334 20.3564 41.8828 20.2686 41.373 20.2686H38.5078V18.2031H41.373C42.2285 18.2031 43.0107 18.3496 43.7197 18.6426C44.4346 18.9297 45.0527 19.3428 45.5742 19.8818C46.0957 20.4209 46.4971 21.0654 46.7783 21.8154C47.0654 22.5596 47.209 23.3887 47.209 24.3027V24.9092C47.209 25.8174 47.0654 26.6465 46.7783 27.3965C46.4971 28.1465 46.0957 28.791 45.5742 29.3301C45.0586 29.8633 44.4404 30.2764 43.7197 30.5693C43.0049 30.8564 42.2139 31 41.3467 31ZM40.0547 18.2031V31H37.418V18.2031H40.0547ZM59.6367 24.3027V24.9092C59.6367 25.8818 59.5049 26.7549 59.2412 27.5283C58.9775 28.3018 58.6055 28.9609 58.125 29.5059C57.6445 30.0449 57.0703 30.458 56.4023 30.7451C55.7402 31.0322 55.0049 31.1758 54.1963 31.1758C53.3936 31.1758 52.6582 31.0322 51.9902 30.7451C51.3281 30.458 50.7539 30.0449 50.2676 29.5059C49.7812 28.9609 49.4033 28.3018 49.1338 27.5283C48.8701 26.7549 48.7383 25.8818 48.7383 24.9092V24.3027C48.7383 23.3242 48.8701 22.4512 49.1338 21.6836C49.3975 20.9102 49.7695 20.251 50.25 19.7061C50.7363 19.1611 51.3105 18.7451 51.9727 18.458C52.6406 18.1709 53.376 18.0273 54.1787 18.0273C54.9873 18.0273 55.7227 18.1709 56.3848 18.458C57.0527 18.7451 57.627 19.1611 58.1074 19.7061C58.5938 20.251 58.9688 20.9102 59.2324 21.6836C59.502 22.4512 59.6367 23.3242 59.6367 24.3027ZM56.9736 24.9092V24.2852C56.9736 23.6055 56.9121 23.0078 56.7891 22.4922C56.666 21.9766 56.4844 21.543 56.2441 21.1914C56.0039 20.8398 55.7109 20.5762 55.3652 20.4004C55.0195 20.2188 54.624 20.1279 54.1787 20.1279C53.7334 20.1279 53.3379 20.2188 52.9922 20.4004C52.6523 20.5762 52.3623 20.8398 52.1221 21.1914C51.8877 21.543 51.709 21.9766 51.5859 22.4922C51.4629 23.0078 51.4014 23.6055 51.4014 24.2852V24.9092C51.4014 25.583 51.4629 26.1807 51.5859 26.7021C51.709 27.2178 51.8906 27.6543 52.1309 28.0117C52.3711 28.3633 52.6641 28.6299 53.0098 28.8115C53.3555 28.9932 53.751 29.084 54.1963 29.084C54.6416 29.084 55.0371 28.9932 55.3828 28.8115C55.7285 28.6299 56.0186 28.3633 56.2529 28.0117C56.4873 27.6543 56.666 27.2178 56.7891 26.7021C56.9121 26.1807 56.9736 25.583 56.9736 24.9092ZM64.6201 28.9697L67.1689 18.2031H68.5928L68.918 19.9961L66.2021 31H64.6729L64.6201 28.9697ZM63.3105 18.2031L65.4199 28.9697L65.2441 31H63.5391L60.7002 18.2031H63.3105ZM71.1592 28.9258L73.2422 18.2031H75.8525L73.0225 31H71.3174L71.1592 28.9258ZM69.3926 18.2031L71.959 29.0137L71.8887 31H70.3594L67.626 19.9873L67.9775 18.2031H69.3926ZM87.7002 18.2031V31H85.0635L79.9219 22.4219V31H77.2852V18.2031H79.9219L85.0723 26.79V18.2031H87.7002ZM98.2207 28.9434V31H91.7783V28.9434H98.2207ZM92.6309 18.2031V31H89.9941V18.2031H92.6309ZM109.664 24.3027V24.9092C109.664 25.8818 109.532 26.7549 109.269 27.5283C109.005 28.3018 108.633 28.9609 108.152 29.5059C107.672 30.0449 107.098 30.458 106.43 30.7451C105.768 31.0322 105.032 31.1758 104.224 31.1758C103.421 31.1758 102.686 31.0322 102.018 30.7451C101.355 30.458 100.781 30.0449 100.295 29.5059C99.8086 28.9609 99.4307 28.3018 99.1611 27.5283C98.8975 26.7549 98.7656 25.8818 98.7656 24.9092V24.3027C98.7656 23.3242 98.8975 22.4512 99.1611 21.6836C99.4248 20.9102 99.7969 20.251 100.277 19.7061C100.764 19.1611 101.338 18.7451 102 18.458C102.668 18.1709 103.403 18.0273 104.206 18.0273C105.015 18.0273 105.75 18.1709 106.412 18.458C107.08 18.7451 107.654 19.1611 108.135 19.7061C108.621 20.251 108.996 20.9102 109.26 21.6836C109.529 22.4512 109.664 23.3242 109.664 24.3027ZM107.001 24.9092V24.2852C107.001 23.6055 106.939 23.0078 106.816 22.4922C106.693 21.9766 106.512 21.543 106.271 21.1914C106.031 20.8398 105.738 20.5762 105.393 20.4004C105.047 20.2188 104.651 20.1279 104.206 20.1279C103.761 20.1279 103.365 20.2188 103.02 20.4004C102.68 20.5762 102.39 20.8398 102.149 21.1914C101.915 21.543 101.736 21.9766 101.613 22.4922C101.49 23.0078 101.429 23.6055 101.429 24.2852V24.9092C101.429 25.583 101.49 26.1807 101.613 26.7021C101.736 27.2178 101.918 27.6543 102.158 28.0117C102.398 28.3633 102.691 28.6299 103.037 28.8115C103.383 28.9932 103.778 29.084 104.224 29.084C104.669 29.084 105.064 28.9932 105.41 28.8115C105.756 28.6299 106.046 28.3633 106.28 28.0117C106.515 27.6543 106.693 27.2178 106.816 26.7021C106.939 26.1807 107.001 25.583 107.001 24.9092ZM116.572 20.3916L113.092 31H110.288L115.043 18.2031H116.827L116.572 20.3916ZM119.464 31L115.975 20.3916L115.693 18.2031H117.495L122.276 31H119.464ZM119.306 26.2363V28.3018H112.547V26.2363H119.306ZM127.392 31H124.605L124.623 28.9434H127.392C128.083 28.9434 128.666 28.7881 129.141 28.4775C129.615 28.1611 129.973 27.7012 130.213 27.0977C130.459 26.4941 130.582 25.7646 130.582 24.9092V24.2852C130.582 23.6289 130.512 23.0518 130.371 22.5537C130.236 22.0557 130.034 21.6367 129.765 21.2969C129.495 20.957 129.164 20.7021 128.771 20.5322C128.379 20.3564 127.928 20.2686 127.418 20.2686H124.553V18.2031H127.418C128.273 18.2031 129.056 18.3496 129.765 18.6426C130.479 18.9297 131.098 19.3428 131.619 19.8818C132.141 20.4209 132.542 21.0654 132.823 21.8154C133.11 22.5596 133.254 23.3887 133.254 24.3027V24.9092C133.254 25.8174 133.11 26.6465 132.823 27.3965C132.542 28.1465 132.141 28.791 131.619 29.3301C131.104 29.8633 130.485 30.2764 129.765 30.5693C129.05 30.8564 128.259 31 127.392 31ZM126.1 18.2031V31H123.463V18.2031H126.1ZM150.164 24.3027V24.9092C150.164 25.8818 150.032 26.7549 149.769 27.5283C149.505 28.3018 149.133 28.9609 148.652 29.5059C148.172 30.0449 147.598 30.458 146.93 30.7451C146.268 31.0322 145.532 31.1758 144.724 31.1758C143.921 31.1758 143.186 31.0322 142.518 30.7451C141.855 30.458 141.281 30.0449 140.795 29.5059C140.309 28.9609 139.931 28.3018 139.661 27.5283C139.397 26.7549 139.266 25.8818 139.266 24.9092V24.3027C139.266 23.3242 139.397 22.4512 139.661 21.6836C139.925 20.9102 140.297 20.251 140.777 19.7061C141.264 19.1611 141.838 18.7451 142.5 18.458C143.168 18.1709 143.903 18.0273 144.706 18.0273C145.515 18.0273 146.25 18.1709 146.912 18.458C147.58 18.7451 148.154 19.1611 148.635 19.7061C149.121 20.251 149.496 20.9102 149.76 21.6836C150.029 22.4512 150.164 23.3242 150.164 24.3027ZM147.501 24.9092V24.2852C147.501 23.6055 147.439 23.0078 147.316 22.4922C147.193 21.9766 147.012 21.543 146.771 21.1914C146.531 20.8398 146.238 20.5762 145.893 20.4004C145.547 20.2188 145.151 20.1279 144.706 20.1279C144.261 20.1279 143.865 20.2188 143.52 20.4004C143.18 20.5762 142.89 20.8398 142.649 21.1914C142.415 21.543 142.236 21.9766 142.113 22.4922C141.99 23.0078 141.929 23.6055 141.929 24.2852V24.9092C141.929 25.583 141.99 26.1807 142.113 26.7021C142.236 27.2178 142.418 27.6543 142.658 28.0117C142.898 28.3633 143.191 28.6299 143.537 28.8115C143.883 28.9932 144.278 29.084 144.724 29.084C145.169 29.084 145.564 28.9932 145.91 28.8115C146.256 28.6299 146.546 28.3633 146.78 28.0117C147.015 27.6543 147.193 27.2178 147.316 26.7021C147.439 26.1807 147.501 25.583 147.501 24.9092ZM159.129 18.2031H161.757V26.6582C161.757 27.6426 161.546 28.4717 161.124 29.1455C160.708 29.8193 160.131 30.3262 159.393 30.666C158.66 31.0059 157.816 31.1758 156.861 31.1758C155.906 31.1758 155.057 31.0059 154.312 30.666C153.574 30.3262 152.994 29.8193 152.572 29.1455C152.156 28.4717 151.948 27.6426 151.948 26.6582V18.2031H154.585V26.6582C154.585 27.2324 154.676 27.7012 154.857 28.0645C155.039 28.4277 155.3 28.6943 155.64 28.8643C155.985 29.0342 156.393 29.1191 156.861 29.1191C157.342 29.1191 157.749 29.0342 158.083 28.8643C158.423 28.6943 158.681 28.4277 158.856 28.0645C159.038 27.7012 159.129 27.2324 159.129 26.6582V18.2031ZM163.928 18.2031H168.7C169.679 18.2031 170.52 18.3496 171.223 18.6426C171.932 18.9355 172.477 19.3691 172.857 19.9434C173.238 20.5176 173.429 21.2236 173.429 22.0615C173.429 22.7471 173.312 23.3359 173.077 23.8281C172.849 24.3145 172.523 24.7217 172.102 25.0498C171.686 25.3721 171.196 25.6299 170.634 25.8232L169.799 26.2627H165.65L165.633 24.2061H168.718C169.181 24.2061 169.564 24.124 169.869 23.96C170.174 23.7959 170.402 23.5674 170.555 23.2744C170.713 22.9814 170.792 22.6416 170.792 22.2549C170.792 21.8447 170.716 21.4902 170.563 21.1914C170.411 20.8926 170.18 20.6641 169.869 20.5059C169.559 20.3477 169.169 20.2686 168.7 20.2686H166.564V31H163.928V18.2031ZM171.082 31L168.164 25.2959L170.95 25.2783L173.903 30.877V31H171.082ZM187.359 26.7549H189.987C189.935 27.6162 189.697 28.3809 189.275 29.0488C188.859 29.7168 188.276 30.2383 187.526 30.6133C186.782 30.9883 185.886 31.1758 184.837 31.1758C184.017 31.1758 183.281 31.0352 182.631 30.7539C181.98 30.4668 181.424 30.0566 180.961 29.5234C180.504 28.9902 180.155 28.3457 179.915 27.5898C179.675 26.834 179.555 25.9873 179.555 25.0498V24.1621C179.555 23.2246 179.678 22.3779 179.924 21.6221C180.176 20.8604 180.533 20.2129 180.996 19.6797C181.465 19.1465 182.024 18.7363 182.675 18.4492C183.325 18.1621 184.052 18.0186 184.854 18.0186C185.921 18.0186 186.82 18.2119 187.553 18.5986C188.291 18.9854 188.862 19.5186 189.267 20.1982C189.677 20.8779 189.923 21.6514 190.005 22.5186H187.368C187.339 22.0029 187.236 21.5664 187.061 21.209C186.885 20.8457 186.618 20.5732 186.261 20.3916C185.909 20.2041 185.44 20.1104 184.854 20.1104C184.415 20.1104 184.031 20.1924 183.703 20.3564C183.375 20.5205 183.1 20.7695 182.877 21.1035C182.654 21.4375 182.487 21.8594 182.376 22.3691C182.271 22.873 182.218 23.4648 182.218 24.1445V25.0498C182.218 25.7119 182.268 26.2949 182.367 26.7988C182.467 27.2969 182.619 27.7188 182.824 28.0645C183.035 28.4043 183.305 28.6621 183.633 28.8379C183.967 29.0078 184.368 29.0928 184.837 29.0928C185.388 29.0928 185.842 29.0049 186.199 28.8291C186.557 28.6533 186.829 28.3926 187.017 28.0469C187.21 27.7012 187.324 27.2705 187.359 26.7549ZM196.922 20.3916L193.441 31H190.638L195.393 18.2031H197.177L196.922 20.3916ZM199.813 31L196.324 20.3916L196.043 18.2031H197.845L202.626 31H199.813ZM199.655 26.2363V28.3018H192.896V26.2363H199.655ZM208.444 18.2031V31H205.816V18.2031H208.444ZM212.382 18.2031V20.2686H201.94V18.2031H212.382ZM218.139 20.3916L214.658 31H211.854L216.609 18.2031H218.394L218.139 20.3916ZM221.03 31L217.541 20.3916L217.26 18.2031H219.062L223.843 31H221.03ZM220.872 26.2363V28.3018H214.113V26.2363H220.872ZM233.256 28.9434V31H226.813V28.9434H233.256ZM227.666 18.2031V31H225.029V18.2031H227.666ZM244.699 24.3027V24.9092C244.699 25.8818 244.567 26.7549 244.304 27.5283C244.04 28.3018 243.668 28.9609 243.188 29.5059C242.707 30.0449 242.133 30.458 241.465 30.7451C240.803 31.0322 240.067 31.1758 239.259 31.1758C238.456 31.1758 237.721 31.0322 237.053 30.7451C236.391 30.458 235.816 30.0449 235.33 29.5059C234.844 28.9609 234.466 28.3018 234.196 27.5283C233.933 26.7549 233.801 25.8818 233.801 24.9092V24.3027C233.801 23.3242 233.933 22.4512 234.196 21.6836C234.46 20.9102 234.832 20.251 235.312 19.7061C235.799 19.1611 236.373 18.7451 237.035 18.458C237.703 18.1709 238.438 18.0273 239.241 18.0273C240.05 18.0273 240.785 18.1709 241.447 18.458C242.115 18.7451 242.689 19.1611 243.17 19.7061C243.656 20.251 244.031 20.9102 244.295 21.6836C244.564 22.4512 244.699 23.3242 244.699 24.3027ZM242.036 24.9092V24.2852C242.036 23.6055 241.975 23.0078 241.852 22.4922C241.729 21.9766 241.547 21.543 241.307 21.1914C241.066 20.8398 240.773 20.5762 240.428 20.4004C240.082 20.2188 239.687 20.1279 239.241 20.1279C238.796 20.1279 238.4 20.2188 238.055 20.4004C237.715 20.5762 237.425 20.8398 237.185 21.1914C236.95 21.543 236.771 21.9766 236.648 22.4922C236.525 23.0078 236.464 23.6055 236.464 24.2852V24.9092C236.464 25.583 236.525 26.1807 236.648 26.7021C236.771 27.2178 236.953 27.6543 237.193 28.0117C237.434 28.3633 237.727 28.6299 238.072 28.8115C238.418 28.9932 238.813 29.084 239.259 29.084C239.704 29.084 240.1 28.9932 240.445 28.8115C240.791 28.6299 241.081 28.3633 241.315 28.0117C241.55 27.6543 241.729 27.2178 241.852 26.7021C241.975 26.1807 242.036 25.583 242.036 24.9092ZM256.74 24.3115V29.3828C256.541 29.623 256.233 29.8838 255.817 30.165C255.401 30.4404 254.865 30.6777 254.209 30.877C253.553 31.0762 252.759 31.1758 251.827 31.1758C251.001 31.1758 250.248 31.041 249.568 30.7715C248.889 30.4961 248.303 30.0947 247.811 29.5674C247.324 29.04 246.949 28.3955 246.686 27.6338C246.422 26.8662 246.29 25.9902 246.29 25.0059V24.2061C246.29 23.2217 246.416 22.3457 246.668 21.5781C246.926 20.8105 247.292 20.1631 247.767 19.6357C248.241 19.1084 248.807 18.707 249.463 18.4316C250.119 18.1562 250.849 18.0186 251.651 18.0186C252.765 18.0186 253.679 18.2002 254.394 18.5635C255.108 18.9209 255.653 19.4189 256.028 20.0576C256.409 20.6904 256.644 21.417 256.731 22.2373H254.174C254.109 21.8037 253.986 21.4258 253.805 21.1035C253.623 20.7812 253.362 20.5293 253.022 20.3477C252.688 20.166 252.255 20.0752 251.722 20.0752C251.282 20.0752 250.89 20.166 250.544 20.3477C250.204 20.5234 249.917 20.7842 249.683 21.1299C249.448 21.4756 249.27 21.9033 249.146 22.4131C249.023 22.9229 248.962 23.5146 248.962 24.1885V25.0059C248.962 25.6738 249.026 26.2656 249.155 26.7812C249.284 27.291 249.475 27.7217 249.727 28.0732C249.984 28.4189 250.301 28.6797 250.676 28.8555C251.051 29.0312 251.487 29.1191 251.985 29.1191C252.401 29.1191 252.747 29.084 253.022 29.0137C253.304 28.9434 253.529 28.8584 253.699 28.7588C253.875 28.6533 254.01 28.5537 254.104 28.46V26.1924H251.695V24.3115H256.74Z" fill="white"/>
</svg>
